<?xml version="1.0" encoding="utf-8"?>
<!-- Generator: Adobe Illustrator 19.2.0, SVG Export Plug-In . SVG Version: 6.00 Build 0)  -->
<svg version="1.1" id="Capa_1" xmlns="http://www.w3.org/2000/svg" xmlns:xlink="http://www.w3.org/1999/xlink" x="0px" y="0px"
	 viewBox="0 0 220 74.6" style="enable-background:new 0 0 220 74.6;" xml:space="preserve">
<style type="text/css">
	.st0{fill:#FFFFFF;}
</style>
<g>
	<path class="st0" d="M86.6,5c-0.2-1.5-1.3-1.7-2.6-0.4c-9.4,10-30,37.4-40.8,55c4-15.4,8.5-28.4,11.9-38.5c2.7-8.1,2.1-10.8,0-13.9
		c-0.9-1.3-1.9-1-2.7-0.1C41.5,20.4,25.1,42.8,15.2,59c4.6-15.1,9.8-29,13.3-38.6c3.1-8.2,2.9-12,1.1-15.1c-0.7-1.3-1.8-1.2-2.7,0.4
		c-5.2,10-13.8,34.5-17.7,50.7c-1.7,7.4-0.9,11.4,2.9,14.7c1.4,1.2,2.5,0.6,3.2-0.5c9.1-14.4,21.4-31.7,31-44.3
		c-3.5,10-7.1,21.7-8.8,29.6c-1.6,7.6-0.3,11.4,3.3,14.7c1.4,1.3,2.3,0.7,3.2-0.5c12.9-19.8,28.7-39.4,36.4-49.6
		C85.8,13.3,87.2,8.7,86.6,5z"/>
	<path class="st0" d="M87.2,26.2c1.6,2.8,4.6,3.1,6,1.6c1.4-1.5,2.1-4.4,0.7-7.1c-1.4-2.9-4.5-4.2-6.2-2.3
		C86,20.1,85.5,23.3,87.2,26.2z"/>
	<path class="st0" d="M211,16.2c1.3-5,0.6-8.9-2.5-11.7c-1.5-1.4-3-1.2-4.6,0.5c-10.9,11.3-23,30.6-27,49.1c0,0.2-0.1,0.3-0.1,0.4
		c-4.1,7-9.2,13.4-13.4,13.6c-3.8,0.2-4.3-4.3-1.5-10.3c2.5-5.4,7.8-13.4,10.1-18.2c2.6-5.3,1.7-10,0.1-11.9
		c-0.9-1.1-1.6-0.9-2.7,0.6c-3.4,4.6-6.5,11.9-13.2,22.8c-5.8,9.3-11.6,16.7-15.8,16.4c-2.5-0.2-2.8-4-0.5-9.3
		c2.2-5.1,4.4-9.4,8.3-15.7c3.8-6.1,4.4-10.9,2-14.4c-0.9-1-1.9-1.1-2.8,0.1c-6.9,9.7-12.4,20.1-14.7,27.2c-0.3,0.8-0.5,1.6-0.7,2.4
		c-3.5,5.6-7.9,10.3-11.5,10.5c-3.6,0.2-3.5-4.2-0.6-10.3c5.3-11.3,15.6-28.9,20.7-38c4.5-8,4.8-12.6,3.3-16.1
		c-0.5-1.4-1.5-1.5-2.6,0c-3.8,5.4-11.9,19.9-17.7,30.9c0.1-3.9-2-7.2-6.4-7.2c-5.3,0-13.8,4.8-22.3,17.2c-2.7,3.9-4.4,7.9-5.1,11.6
		c-3.3,6.2-8.3,11.6-12.5,11.7c-3.4,0.2-3.6-3.9-1.1-10.1c2.2-5.3,6.7-12.6,8.9-17.3c2.6-5.3,1.7-9.9,0.1-11.6
		c-0.9-1-1.6-0.6-2.6,0.6c-3.9,5.5-11,18.1-13.6,25.9c-3,8.7-1,15.6,7.1,15.6c4.7,0,9.9-2.8,13.4-7.2c0.9,4.3,3.8,7.1,8.3,7.1
		c5,0,9.8-3.9,13.2-8.2c0,5,2.9,8.2,8.6,8.5c4,0.2,8.5-2.4,11.7-6c0.7,3.1,2.6,5.3,6.5,5.6c6,0.4,11.6-5,15.3-10
		c-0.9,6.2,1.9,10.5,8.8,10.5c5.2,0,10.5-3.7,14-8.3c0.9,5.2,4.3,7.6,9.3,7.7c8.5,0.2,16.3-8.6,17.8-11.8c1.2-2.6,1.6-4.9,1.1-6.6
		c-0.4-1.5-1.6-1.4-2.3,0c-4.2,8.2-11.6,15.9-16.7,15.4c-4.8-0.4-3.6-9.3,0.6-19.7C195.8,42.1,207.7,29.3,211,16.2z M190.8,38.5
		c7.4-13.6,15.2-25.5,16.6-24.6c1.4,0.9-4.6,17.9-19.2,29.7C188.9,42,189.8,40.3,190.8,38.5z M99.5,67.5c-4.2-0.1-3-9.4,2.8-18.5
		c5.9-9.4,13.6-16.1,16.9-16c3.1,0.1,1.5,6.8-4.7,18.6C109.5,61.3,103.7,67.6,99.5,67.5z"/>
</g>
</svg>
